REM DIRINDEX 1\2,1\3,1\4,1\5
REM DIRNAME "folder01","folder02","folder03","folder04","folder05"
TITLE ""
FILE "P1Q_j_1842-1855.mp3" MP3
  TRACK 01 AUDIO
    TITLE "3:cjc173_0728"
    INDEX 01 00:00:00
  TRACK 02 AUDIO
    TITLE "0:"
    INDEX 01 00:01:23
  TRACK 03 AUDIO
    TITLE "4:cjc173_0729"
    INDEX 01 00:01:45
  TRACK 04 AUDIO
    TITLE "0:"
    INDEX 01 00:05:70
  TRACK 05 AUDIO
    TITLE "5:cjc173_0730"
    INDEX 01 00:06:15
  TRACK 06 AUDIO
    TITLE "0:"
    INDEX 01 00:09:48
  TRACK 07 AUDIO
    TITLE "3:cjc173_0731"
    INDEX 01 00:10:20
  TRACK 08 AUDIO
    TITLE "0:"
    INDEX 01 00:11:61
  TRACK 09 AUDIO
    TITLE "4:cjc173_0732"
    INDEX 01 00:12:08
  TRACK 10 AUDIO
    TITLE "0:"
    INDEX 01 00:16:56
  TRACK 11 AUDIO
    TITLE "5:cjc173_0733"
    INDEX 01 00:16:74
  TRACK 12 AUDIO
    TITLE "0:"
    INDEX 01 00:20:50
  TRACK 13 AUDIO
    TITLE "3:cjc173_0734"
    INDEX 01 00:21:22
  TRACK 14 AUDIO
    TITLE "0:"
    INDEX 01 00:22:57
  TRACK 15 AUDIO
    TITLE "4:cjc173_0735"
    INDEX 01 00:23:03
  TRACK 16 AUDIO
    TITLE "0:"
    INDEX 01 00:26:21
  TRACK 17 AUDIO
    TITLE "5:cjc173_0736"
    INDEX 01 00:26:43
  TRACK 18 AUDIO
    TITLE "0:"
    INDEX 01 00:30:70
  TRACK 19 AUDIO
    TITLE "3:cjc173_0737"
    INDEX 01 00:31:42
  TRACK 20 AUDIO
    TITLE "0:"
    INDEX 01 00:33:14
  TRACK 21 AUDIO
    TITLE "4:cjc173_0738"
    INDEX 01 00:33:31
  TRACK 22 AUDIO
    TITLE "0:"
    INDEX 01 00:38:21
  TRACK 23 AUDIO
    TITLE "5:cjc173_0739"
    INDEX 01 00:38:46
  TRACK 24 AUDIO
    TITLE "0:"
    INDEX 01 00:43:28
  TRACK 25 AUDIO
    TITLE "3:cjc173_0740"
    INDEX 01 00:44:02
  TRACK 26 AUDIO
    TITLE "0:"
    INDEX 01 00:45:38
  TRACK 27 AUDIO
    TITLE "4:cjc173_0741"
    INDEX 01 00:45:58
  TRACK 28 AUDIO
    TITLE "0:"
    INDEX 01 00:53:28
  TRACK 29 AUDIO
    TITLE "5:cjc173_0742"
    INDEX 01 00:53:48
  TRACK 30 AUDIO
    TITLE "0:"
    INDEX 01 01:00:38
  TRACK 31 AUDIO
    TITLE "3:cjc173_0743"
    INDEX 01 01:01:10
  TRACK 32 AUDIO
    TITLE "0:"
    INDEX 01 01:02:33
  TRACK 33 AUDIO
    TITLE "4:cjc173_0744"
    INDEX 01 01:02:54
  TRACK 34 AUDIO
    TITLE "0:"
    INDEX 01 01:07:24
  TRACK 35 AUDIO
    TITLE "5:cjc173_0745"
    INDEX 01 01:07:42
  TRACK 36 AUDIO
    TITLE "0:"
    INDEX 01 01:11:52
  TRACK 37 AUDIO
    TITLE "3:cjc173_0746"
    INDEX 01 01:12:25
  TRACK 38 AUDIO
    TITLE "0:"
    INDEX 01 01:13:68
  TRACK 39 AUDIO
    TITLE "4:cjc173_0747"
    INDEX 01 01:14:13
  TRACK 40 AUDIO
    TITLE "0:"
    INDEX 01 01:18:42
  TRACK 41 AUDIO
    TITLE "5:cjc173_0748"
    INDEX 01 01:18:61
  TRACK 42 AUDIO
    TITLE "0:"
    INDEX 01 01:23:02
  TRACK 43 AUDIO
    TITLE "3:cjc173_0749"
    INDEX 01 01:23:47
  TRACK 44 AUDIO
    TITLE "0:"
    INDEX 01 01:24:70
  TRACK 45 AUDIO
    TITLE "4:cjc173_0750"
    INDEX 01 01:25:16
  TRACK 46 AUDIO
    TITLE "0:"
    INDEX 01 01:28:23
  TRACK 47 AUDIO
    TITLE "5:cjc173_0751"
    INDEX 01 01:28:42
  TRACK 48 AUDIO
    TITLE "0:"
    INDEX 01 01:32:56
  TRACK 49 AUDIO
    TITLE "3:cjc173_0752"
    INDEX 01 01:33:26
  TRACK 50 AUDIO
    TITLE "0:"
    INDEX 01 01:35:32
  TRACK 51 AUDIO
    TITLE "4:cjc173_0753"
    INDEX 01 01:35:56
  TRACK 52 AUDIO
    TITLE "0:"
    INDEX 01 01:37:70
  TRACK 53 AUDIO
    TITLE "5:cjc173_0754"
    INDEX 01 01:38:15
  TRACK 54 AUDIO
    TITLE "0:"
    INDEX 01 01:43:06
  TRACK 55 AUDIO
    TITLE "3:cjc173_0755"
    INDEX 01 01:43:52
  TRACK 56 AUDIO
    TITLE "0:"
    INDEX 01 01:45:17
  TRACK 57 AUDIO
    TITLE "4:cjc173_0756"
    INDEX 01 01:45:37
  TRACK 58 AUDIO
    TITLE "0:"
    INDEX 01 01:51:06
  TRACK 59 AUDIO
    TITLE "5:cjc173_0757"
    INDEX 01 01:51:27
  TRACK 60 AUDIO
    TITLE "0:"
    INDEX 01 01:55:47
  TRACK 61 AUDIO
    TITLE "3:cjc173_0758"
    INDEX 01 01:56:19
  TRACK 62 AUDIO
    TITLE "0:"
    INDEX 01 01:57:73
  TRACK 63 AUDIO
    TITLE "4:cjc173_0759"
    INDEX 01 01:58:18
  TRACK 64 AUDIO
    TITLE "0:"
    INDEX 01 02:03:60
  TRACK 65 AUDIO
    TITLE "5:cjc173_0760"
    INDEX 01 02:04:07
  TRACK 66 AUDIO
    TITLE "0:"
    INDEX 01 02:07:23
  TRACK 67 AUDIO
    TITLE "3:cjc173_0761"
    INDEX 01 02:07:68
  TRACK 68 AUDIO
    TITLE "0:"
    INDEX 01 02:09:33
  TRACK 69 AUDIO
    TITLE "4:cjc173_0762"
    INDEX 01 02:09:55
  TRACK 70 AUDIO
    TITLE "0:"
    INDEX 01 02:14:54
  TRACK 71 AUDIO
    TITLE "5:cjc173_0763"
    INDEX 01 02:14:72
  TRACK 72 AUDIO
    TITLE "0:"
    INDEX 01 02:18:46
  TRACK 73 AUDIO
    TITLE "3:cjc173_0764"
    INDEX 01 02:19:14
  TRACK 74 AUDIO
    TITLE "0:"
    INDEX 01 02:20:51
  TRACK 75 AUDIO
    TITLE "4:cjc173_0765"
    INDEX 01 02:20:72
  TRACK 76 AUDIO
    TITLE "0:"
    INDEX 01 02:22:18
  TRACK 77 AUDIO
    TITLE "5:cjc173_0766"
    INDEX 01 02:22:36
  TRACK 78 AUDIO
    TITLE "0:"
    INDEX 01 02:27:29
  TRACK 79 AUDIO
    TITLE "3:cjc173_0767"
    INDEX 01 02:27:72
  TRACK 80 AUDIO
    TITLE "0:"
    INDEX 01 02:29:38
  TRACK 81 AUDIO
    TITLE "4:cjc173_0768"
    INDEX 01 02:29:59
  TRACK 82 AUDIO
    TITLE "0:"
    INDEX 01 02:32:54
  TRACK 83 AUDIO
    TITLE "5:cjc173_0769"
    INDEX 01 02:32:72
  TRACK 84 AUDIO
    TITLE "0:"
    INDEX 01 02:37:39
